<svg xmlns="http://www.w3.org/2000/svg" version="1.1" xmlns:xlink="http://www.w3.org/1999/xlink" xmlns:svgjs="http://svgjs.dev/svgjs" viewBox="0 0 14.663945789078632 15.452513146141309"><g transform="matrix(1,0,0,1,1.2543361757893159,12.031111762610516)"><g><path d=" M 0.013916015625 0.010986328125 L 0.2080078125 0.010986328125 L 0.345703125 1.001953125 L 0.353759765625 1.001953125 L 0.4921875 0.010986328125 L 0.685546875 0.010986328125 L 0.457763671875 1.261962890625 L 0.240966796875 1.261962890625 L 0.013916015625 0.010986328125 M 0.806396484375 0.010986328125 L 0.99609375 0.010986328125 L 0.99609375 1.261962890625 L 0.806396484375 1.261962890625 L 0.806396484375 0.010986328125 M 1.2099609375 0.010986328125 L 1.406982421875 0.010986328125 Q 1.45166015625 0.010986328125 1.4996337890625 0.0135498046875 Q 1.547607421875 0.01611328125 1.5933837890625 0.029296875 Q 1.63916015625 0.04248046875 1.6798095703125 0.0699462890625 Q 1.720458984375 0.097412109375 1.751220703125 0.1468505859375 Q 1.781982421875 0.1962890625 1.7999267578125 0.2713623046875 Q 1.81787109375 0.346435546875 1.81787109375 0.454833984375 L 1.81787109375 0.818115234375 Q 1.81787109375 0.926513671875 1.7999267578125 1.001953125 Q 1.781982421875 1.077392578125 1.751220703125 1.12646484375 Q 1.720458984375 1.175537109375 1.6798095703125 1.2030029296875 Q 1.63916015625 1.23046875 1.5933837890625 1.24365234375 Q 1.547607421875 1.2568359375 1.4996337890625 1.2593994140625 Q 1.45166015625 1.261962890625 1.406982421875 1.261962890625 L 1.2099609375 1.261962890625 L 1.2099609375 0.010986328125 M 1.447998046875 1.12939453125 Q 1.499267578125 1.12939453125 1.5325927734375 1.1162109375 Q 1.56591796875 1.10302734375 1.5853271484375 1.0697021484375 Q 1.604736328125 1.036376953125 1.612060546875 0.9788818359375 Q 1.619384765625 0.92138671875 1.619384765625 0.83349609375 L 1.619384765625 0.4453125 Q 1.619384765625 0.357421875 1.612060546875 0.2999267578125 Q 1.604736328125 0.242431640625 1.5853271484375 0.2091064453125 Q 1.56591796875 0.17578125 1.5325927734375 0.16259765625 Q 1.499267578125 0.1494140625 1.447998046875 0.1494140625 L 1.399658203125 0.1494140625 L 1.399658203125 1.12939453125 L 1.447998046875 1.12939453125 M 1.987060546875 0.010986328125 L 2.45068359375 0.010986328125 L 2.45068359375 0.160400390625 L 2.1767578125 0.160400390625 L 2.1767578125 0.53466796875 L 2.388427734375 0.53466796875 L 2.388427734375 0.68408203125 L 2.1767578125 0.68408203125 L 2.1767578125 1.112548828125 L 2.4580078125 1.112548828125 L 2.4580078125 1.261962890625 L 1.987060546875 1.261962890625 L 1.987060546875 0.010986328125 M 2.871826171875 1.27294921875 Q 2.841796875 1.27294921875 2.806640625 1.2681884765625 Q 2.771484375 1.263427734375 2.737060546875 1.248046875 Q 2.70263671875 1.232666015625 2.6707763671875 1.2044677734375 Q 2.638916015625 1.17626953125 2.6143798828125 1.130126953125 Q 2.58984375 1.083984375 2.5751953125 1.0162353515625 Q 2.560546875 0.948486328125 2.560546875 0.854736328125 L 2.560546875 0.41162109375 Q 2.560546875 0.317138671875 2.5755615234375 0.2501220703125 Q 2.590576171875 0.18310546875 2.615478515625 0.1373291015625 Q 2.640380859375 0.091552734375 2.6722412109375 0.064453125 Q 2.7041015625 0.037353515625 2.7388916015625 0.0230712890625 Q 2.773681640625 0.0087890625 2.80810546875 0.00439453125 Q 2.842529296875 0 2.871826171875 0 Q 2.899658203125 0 2.9337158203125 0.0040283203125 Q 2.9677734375 0.008056640625 3.0018310546875 0.0216064453125 Q 3.035888671875 0.03515625 3.068115234375 0.0618896484375 Q 3.100341796875 0.088623046875 3.125244140625 0.1343994140625 Q 3.150146484375 0.18017578125 3.1651611328125 0.2479248046875 Q 3.18017578125 0.315673828125 3.18017578125 0.41162109375 L 3.18017578125 0.854736328125 Q 3.18017578125 0.94775390625 3.164794921875 1.0147705078125 Q 3.1494140625 1.081787109375 3.12451171875 1.1282958984375 Q 3.099609375 1.1748046875 3.0670166015625 1.2030029296875 Q 3.034423828125 1.231201171875 3.0003662109375 1.2469482421875 Q 2.96630859375 1.2626953125 2.9326171875 1.267822265625 Q 2.89892578125 1.27294921875 2.871826171875 1.27294921875 M 2.871826171875 1.130126953125 Q 2.899658203125 1.130126953125 2.9205322265625 1.12060546875 Q 2.94140625 1.111083984375 2.9549560546875 1.087646484375 Q 2.968505859375 1.064208984375 2.9754638671875 1.0257568359375 Q 2.982421875 0.9873046875 2.982421875 0.9287109375 L 2.982421875 0.359619140625 Q 2.982421875 0.299560546875 2.9754638671875 0.25927734375 Q 2.968505859375 0.218994140625 2.9549560546875 0.1944580078125 Q 2.94140625 0.169921875 2.9205322265625 0.15966796875 Q 2.899658203125 0.1494140625 2.871826171875 0.1494140625 Q 2.84326171875 0.1494140625 2.822021484375 0.15966796875 Q 2.80078125 0.169921875 2.786865234375 0.1944580078125 Q 2.77294921875 0.218994140625 2.7659912109375 0.25927734375 Q 2.759033203125 0.299560546875 2.759033203125 0.359619140625 L 2.759033203125 0.9287109375 Q 2.759033203125 0.9873046875 2.7659912109375 1.0257568359375 Q 2.77294921875 1.064208984375 2.786865234375 1.087646484375 Q 2.80078125 1.111083984375 2.822021484375 1.12060546875 Q 2.84326171875 1.130126953125 2.871826171875 1.130126953125 M 3.359619140625 0.010986328125 L 3.5654296875 0.010986328125 Q 3.6005859375 0.010986328125 3.6427001953125 0.013916015625 Q 3.684814453125 0.016845703125 3.7269287109375 0.0281982421875 Q 3.76904296875 0.03955078125 3.8082275390625 0.062255859375 Q 3.847412109375 0.0849609375 3.8778076171875 0.12451171875 Q 3.908203125 0.1640625 3.926513671875 0.2237548828125 Q 3.94482421875 0.283447265625 3.94482421875 0.368408203125 L 3.94482421875 0.39990234375 Q 3.94482421875 0.542724609375 3.90380859375 0.6324462890625 Q 3.86279296875 0.72216796875 3.782958984375 0.76171875 L 3.983642578125 1.261962890625 L 3.782958984375 1.261962890625 L 3.61669921875 0.7939453125 L 3.545654296875 0.7939453125 L 3.545654296875 1.261962890625 L 3.359619140625 1.261962890625 L 3.359619140625 0.010986328125 M 3.57421875 0.656982421875 Q 3.6240234375 0.656982421875 3.658447265625 0.64599609375 Q 3.69287109375 0.635009765625 3.714111328125 0.6090087890625 Q 3.7353515625 0.5830078125 3.744873046875 0.5401611328125 Q 3.75439453125 0.497314453125 3.75439453125 0.434326171875 L 3.75439453125 0.33544921875 Q 3.75439453125 0.287109375 3.74560546875 0.251953125 Q 3.73681640625 0.216796875 3.7159423828125 0.194091796875 Q 3.695068359375 0.17138671875 3.66064453125 0.160400390625 Q 3.626220703125 0.1494140625 3.57421875 0.1494140625 L 3.545654296875 0.1494140625 L 3.545654296875 0.656982421875 L 3.57421875 0.656982421875 M 4.127197265625 0.010986328125 L 4.5908203125 0.010986328125 L 4.5908203125 0.160400390625 L 4.31689453125 0.160400390625 L 4.31689453125 0.53466796875 L 4.528564453125 0.53466796875 L 4.528564453125 0.68408203125 L 4.31689453125 0.68408203125 L 4.31689453125 1.112548828125 L 4.59814453125 1.112548828125 L 4.59814453125 1.261962890625 L 4.127197265625 1.261962890625 L 4.127197265625 0.010986328125 M 4.735107421875 0.010986328125 L 4.982666015625 0.010986328125 L 5.102783203125 0.4951171875 Q 5.121826171875 0.57568359375 5.1328125 0.6485595703125 Q 5.143798828125 0.721435546875 5.154052734375 0.785888671875 L 5.159912109375 0.785888671875 Q 5.170166015625 0.721435546875 5.18115234375 0.6485595703125 Q 5.192138671875 0.57568359375 5.211181640625 0.4951171875 L 5.3349609375 0.010986328125 L 5.577392578125 0.010986328125 L 5.577392578125 1.261962890625 L 5.400146484375 1.261962890625 L 5.400146484375 0.84814453125 Q 5.400146484375 0.7529296875 5.4019775390625 0.6650390625 Q 5.40380859375 0.5771484375 5.40673828125 0.5035400390625 Q 5.40966796875 0.429931640625 5.413330078125 0.37353515625 Q 5.4169921875 0.317138671875 5.419921875 0.2841796875 L 5.406005859375 0.2841796875 L 5.217041015625 1.100830078125 L 5.096923828125 1.100830078125 L 4.906494140625 0.2841796875 L 4.892578125 0.2841796875 Q 4.8955078125 0.317138671875 4.899169921875 0.37353515625 Q 4.90283203125 0.429931640625 4.90576171875 0.5035400390625 Q 4.90869140625 0.5771484375 4.9105224609375 0.6650390625 Q 4.912353515625 0.7529296875 4.912353515625 0.84814453125 L 4.912353515625 1.261962890625 L 4.735107421875 1.261962890625 L 4.735107421875 0.010986328125 M 6.068115234375 1.27294921875 Q 6.0380859375 1.27294921875 6.0029296875 1.2681884765625 Q 5.9677734375 1.263427734375 5.933349609375 1.248046875 Q 5.89892578125 1.232666015625 5.8670654296875 1.2044677734375 Q 5.835205078125 1.17626953125 5.8106689453125 1.130126953125 Q 5.7861328125 1.083984375 5.771484375 1.0162353515625 Q 5.7568359375 0.948486328125 5.7568359375 0.854736328125 L 5.7568359375 0.41162109375 Q 5.7568359375 0.317138671875 5.7718505859375 0.2501220703125 Q 5.786865234375 0.18310546875 5.811767578125 0.1373291015625 Q 5.836669921875 0.091552734375 5.8685302734375 0.064453125 Q 5.900390625 0.037353515625 5.9351806640625 0.0230712890625 Q 5.969970703125 0.0087890625 6.00439453125 0.00439453125 Q 6.038818359375 0 6.068115234375 0 Q 6.095947265625 0 6.1300048828125 0.0040283203125 Q 6.1640625 0.008056640625 6.1981201171875 0.0216064453125 Q 6.232177734375 0.03515625 6.264404296875 0.0618896484375 Q 6.296630859375 0.088623046875 6.321533203125 0.1343994140625 Q 6.346435546875 0.18017578125 6.3614501953125 0.2479248046875 Q 6.37646484375 0.315673828125 6.37646484375 0.41162109375 L 6.37646484375 0.854736328125 Q 6.37646484375 0.94775390625 6.361083984375 1.0147705078125 Q 6.345703125 1.081787109375 6.32080078125 1.1282958984375 Q 6.2958984375 1.1748046875 6.2633056640625 1.2030029296875 Q 6.230712890625 1.231201171875 6.1966552734375 1.2469482421875 Q 6.16259765625 1.2626953125 6.12890625 1.267822265625 Q 6.09521484375 1.27294921875 6.068115234375 1.27294921875 M 6.068115234375 1.130126953125 Q 6.095947265625 1.130126953125 6.1168212890625 1.12060546875 Q 6.1376953125 1.111083984375 6.1512451171875 1.087646484375 Q 6.164794921875 1.064208984375 6.1717529296875 1.0257568359375 Q 6.1787109375 0.9873046875 6.1787109375 0.9287109375 L 6.1787109375 0.359619140625 Q 6.1787109375 0.299560546875 6.1717529296875 0.25927734375 Q 6.164794921875 0.218994140625 6.1512451171875 0.1944580078125 Q 6.1376953125 0.169921875 6.1168212890625 0.15966796875 Q 6.095947265625 0.1494140625 6.068115234375 0.1494140625 Q 6.03955078125 0.1494140625 6.018310546875 0.15966796875 Q 5.9970703125 0.169921875 5.983154296875 0.1944580078125 Q 5.96923828125 0.218994140625 5.9622802734375 0.25927734375 Q 5.955322265625 0.299560546875 5.955322265625 0.359619140625 L 5.955322265625 0.9287109375 Q 5.955322265625 0.9873046875 5.9622802734375 1.0257568359375 Q 5.96923828125 1.064208984375 5.983154296875 1.087646484375 Q 5.9970703125 1.111083984375 6.018310546875 1.12060546875 Q 6.03955078125 1.130126953125 6.068115234375 1.130126953125 M 6.462890625 0.010986328125 L 6.656982421875 0.010986328125 L 6.794677734375 1.001953125 L 6.802734375 1.001953125 L 6.941162109375 0.010986328125 L 7.134521484375 0.010986328125 L 6.90673828125 1.261962890625 L 6.68994140625 1.261962890625 L 6.462890625 0.010986328125 M 7.25537109375 0.010986328125 L 7.718994140625 0.010986328125 L 7.718994140625 0.160400390625 L 7.445068359375 0.160400390625 L 7.445068359375 0.53466796875 L 7.65673828125 0.53466796875 L 7.65673828125 0.68408203125 L 7.445068359375 0.68408203125 L 7.445068359375 1.112548828125 L 7.726318359375 1.112548828125 L 7.726318359375 1.261962890625 L 7.25537109375 1.261962890625 L 7.25537109375 0.010986328125 M 7.81494140625 1.008544921875 Q 7.81494140625 0.96826171875 7.8197021484375 0.9342041015625 Q 7.824462890625 0.900146484375 7.833984375 0.860595703125 L 7.981201171875 0.860595703125 L 7.981201171875 0.92138671875 Q 7.981201171875 0.971923828125 7.9874267578125 1.0107421875 Q 7.99365234375 1.049560546875 8.0079345703125 1.0762939453125 Q 8.022216796875 1.10302734375 8.0460205078125 1.1165771484375 Q 8.06982421875 1.130126953125 8.104248046875 1.130126953125 Q 8.158447265625 1.130126953125 8.18701171875 1.1004638671875 Q 8.215576171875 1.07080078125 8.215576171875 1.013671875 Q 8.215576171875 0.984375 8.2115478515625 0.9598388671875 Q 8.20751953125 0.935302734375 8.1976318359375 0.9111328125 Q 8.187744140625 0.886962890625 8.1708984375 0.8602294921875 Q 8.154052734375 0.83349609375 8.127685546875 0.800537109375 L 7.929931640625 0.5654296875 Q 7.877197265625 0.498046875 7.8486328125 0.4295654296875 Q 7.820068359375 0.361083984375 7.820068359375 0.283447265625 Q 7.820068359375 0.22119140625 7.8394775390625 0.169189453125 Q 7.85888671875 0.1171875 7.8955078125 0.0794677734375 Q 7.93212890625 0.041748046875 7.9859619140625 0.0208740234375 Q 8.039794921875 0 8.10791015625 0 Q 8.190673828125 0 8.2459716796875 0.0234375 Q 8.30126953125 0.046875 8.334228515625 0.0849609375 Q 8.3671875 0.123046875 8.3807373046875 0.1702880859375 Q 8.394287109375 0.217529296875 8.394287109375 0.26513671875 Q 8.394287109375 0.305419921875 8.3880615234375 0.3394775390625 Q 8.3818359375 0.37353515625 8.373779296875 0.41455078125 L 8.227294921875 0.41455078125 L 8.227294921875 0.355224609375 Q 8.227294921875 0.255615234375 8.19873046875 0.2025146484375 Q 8.170166015625 0.1494140625 8.105712890625 0.1494140625 Q 8.05224609375 0.1494140625 8.02587890625 0.1790771484375 Q 7.99951171875 0.208740234375 7.99951171875 0.258544921875 Q 7.99951171875 0.284912109375 8.0035400390625 0.30615234375 Q 8.007568359375 0.327392578125 8.0152587890625 0.3453369140625 Q 8.02294921875 0.36328125 8.033935546875 0.380126953125 Q 8.044921875 0.39697265625 8.058837890625 0.415283203125 L 8.279296875 0.681884765625 Q 8.33935546875 0.76025390625 8.37158203125 0.8323974609375 Q 8.40380859375 0.904541015625 8.40380859375 0.985107421875 Q 8.40380859375 1.0517578125 8.3829345703125 1.105224609375 Q 8.362060546875 1.15869140625 8.3232421875 1.196044921875 Q 8.284423828125 1.2333984375 8.2294921875 1.2535400390625 Q 8.174560546875 1.273681640625 8.105712890625 1.273681640625 Q 8.020751953125 1.273681640625 7.9647216796875 1.2509765625 Q 7.90869140625 1.228271484375 7.8753662109375 1.19091796875 Q 7.842041015625 1.153564453125 7.8284912109375 1.10595703125 Q 7.81494140625 1.058349609375 7.81494140625 1.008544921875 M 8.5634765625 0.010986328125 L 8.753173828125 0.010986328125 L 8.753173828125 1.261962890625 L 8.5634765625 1.261962890625 L 8.5634765625 0.010986328125 M 8.967041015625 0.010986328125 L 9.15673828125 0.010986328125 L 9.15673828125 1.112548828125 L 9.415283203125 1.112548828125 L 9.415283203125 1.261962890625 L 8.967041015625 1.261962890625 L 8.967041015625 0.010986328125 M 9.535400390625 0.010986328125 L 9.9990234375 0.010986328125 L 9.9990234375 0.160400390625 L 9.72509765625 0.160400390625 L 9.72509765625 0.53466796875 L 9.936767578125 0.53466796875 L 9.936767578125 0.68408203125 L 9.72509765625 0.68408203125 L 9.72509765625 1.112548828125 L 10.00634765625 1.112548828125 L 10.00634765625 1.261962890625 L 9.535400390625 1.261962890625 L 9.535400390625 0.010986328125 M 10.143310546875 0.010986328125 L 10.297119140625 0.010986328125 L 10.600341796875 0.84814453125 L 10.604736328125 0.84814453125 Q 10.6025390625 0.81884765625 10.598876953125 0.782958984375 Q 10.59521484375 0.7470703125 10.59228515625 0.7012939453125 Q 10.58935546875 0.655517578125 10.587158203125 0.59765625 Q 10.5849609375 0.539794921875 10.5849609375 0.46728515625 L 10.5849609375 0.010986328125 L 10.7548828125 0.010986328125 L 10.7548828125 1.261962890625 L 10.599609375 1.261962890625 L 10.2978515625 0.44677734375 L 10.2919921875 0.44677734375 Q 10.294189453125 0.479736328125 10.2978515625 0.5181884765625 Q 10.301513671875 0.556640625 10.304443359375 0.608642578125 Q 10.307373046875 0.66064453125 10.3095703125 0.7298583984375 Q 10.311767578125 0.799072265625 10.311767578125 0.894287109375 L 10.311767578125 1.261962890625 L 10.143310546875 1.261962890625 L 10.143310546875 0.010986328125 M 11.23828125 1.27294921875 Q 11.208984375 1.27294921875 11.1749267578125 1.2681884765625 Q 11.140869140625 1.263427734375 11.1068115234375 1.248046875 Q 11.07275390625 1.232666015625 11.0416259765625 1.2044677734375 Q 11.010498046875 1.17626953125 10.9866943359375 1.130126953125 Q 10.962890625 1.083984375 10.9486083984375 1.0162353515625 Q 10.934326171875 0.948486328125 10.934326171875 0.854736328125 L 10.934326171875 0.41162109375 Q 10.934326171875 0.317138671875 10.948974609375 0.2501220703125 Q 10.963623046875 0.18310546875 10.98779296875 0.1373291015625 Q 11.011962890625 0.091552734375 11.04345703125 0.064453125 Q 11.074951171875 0.037353515625 11.108642578125 0.0230712890625 Q 11.142333984375 0.0087890625 11.1756591796875 0.00439453125 Q 11.208984375 0 11.237548828125 0 Q 11.312255859375 0 11.3624267578125 0.0208740234375 Q 11.41259765625 0.041748046875 11.4429931640625 0.0780029296875 Q 11.473388671875 0.1142578125 11.4862060546875 0.16259765625 Q 11.4990234375 0.2109375 11.4990234375 0.26513671875 Q 11.4990234375 0.305419921875 11.4949951171875 0.3394775390625 Q 11.490966796875 0.37353515625 11.48291015625 0.41455078125 L 11.3291015625 0.41455078125 L 11.3291015625 0.350830078125 Q 11.3291015625 0.24755859375 11.306396484375 0.1962890625 Q 11.28369140625 0.14501953125 11.23974609375 0.14501953125 Q 11.21337890625 0.14501953125 11.193603515625 0.1552734375 Q 11.173828125 0.16552734375 11.16064453125 0.1900634765625 Q 11.1474609375 0.214599609375 11.1405029296875 0.2548828125 Q 11.133544921875 0.295166015625 11.133544921875 0.355224609375 L 11.133544921875 0.926513671875 Q 11.133544921875 0.985107421875 11.1390380859375 1.02392578125 Q 11.14453125 1.062744140625 11.156982421875 1.086181640625 Q 11.16943359375 1.109619140625 11.1895751953125 1.1195068359375 Q 11.209716796875 1.12939453125 11.23828125 1.12939453125 Q 11.256591796875 1.12939453125 11.2734375 1.1209716796875 Q 11.290283203125 1.112548828125 11.3031005859375 1.0946044921875 Q 11.31591796875 1.07666015625 11.3236083984375 1.0491943359375 Q 11.331298828125 1.021728515625 11.331298828125 0.984375 L 11.331298828125 0.862060546875 L 11.5048828125 0.862060546875 L 11.5048828125 0.977783203125 Q 11.5048828125 1.128662109375 11.43603515625 1.200439453125 Q 11.3671875 1.272216796875 11.23828125 1.27294921875 M 11.654296875 0.010986328125 L 12.117919921875 0.010986328125 L 12.117919921875 0.160400390625 L 11.843994140625 0.160400390625 L 11.843994140625 0.53466796875 L 12.0556640625 0.53466796875 L 12.0556640625 0.68408203125 L 11.843994140625 0.68408203125 L 11.843994140625 1.112548828125 L 12.125244140625 1.112548828125 L 12.125244140625 1.261962890625 L 11.654296875 1.261962890625 L 11.654296875 0.010986328125" fill="#212245" fill-rule="nonzero"></path></g><g><path d=" M 4.370344682173295 1.745922629616477 Q 4.380998091264204 1.786538751775568 4.380998091264204 1.835644309303977 Q 4.380998091264204 1.884749866832386 4.372675115411932 1.926864124644886 Q 4.364352139559659 1.968978382457386 4.349370783025568 2.004767178622159 Q 4.334389426491477 2.0405559747869315 4.313581986860795 2.0693534712357953 Q 4.292774547230113 2.098150967684659 4.267472700639204 2.1184590287642044 Q 4.215204412286932 2.160406827059659 4.153947310014204 2.160406827059659 Q 4.144292658025568 2.160406827059659 4.141462846235795 2.154247824928977 Q 4.1386330344460225 2.1480888227982953 4.1386330344460225 2.1394329279119315 L 4.1386330344460225 2.110801890980113 Q 4.1386330344460225 2.090160910866477 4.1384665749289775 2.0606975763494315 Q 4.138300115411932 2.031234241832386 4.138133655894886 1.9951125266335226 Q 4.137967196377841 1.9589908114346588 4.137467817826704 1.920205743963068 Q 4.136968439275568 1.881420676491477 4.136469060724432 1.8419697709517044 Q 4.135969682173295 1.8025188654119315 4.135303844105113 1.7665636097301134 Q 4.133306329900568 1.6919897460937499 4.130642977627841 1.6490431906960223 Q 4.128978382457386 1.6264046963778407 4.150618119673295 1.6237413441051134 Q 4.1825783469460225 1.6190804776278407 4.203219327059659 1.6190804776278407 Q 4.337052778764204 1.6190804776278407 4.370344682173295 1.745922629616477 M 4.171924937855113 2.129112437855113 Q 4.209544788707386 2.12778076171875 4.246831720525568 2.0968192915482953 Q 4.3160788796164775 2.0392242986505678 4.339383212002841 1.925033069957386 Q 4.3473732688210225 1.8857486239346588 4.3473732688210225 1.835977228338068 Q 4.3473732688210225 1.786205832741477 4.335221724076704 1.7494182794744315 Q 4.323070179332386 1.712630726207386 4.303760875355113 1.690658069957386 Q 4.267472700639204 1.6493761097301134 4.210210626775568 1.6493761097301134 Q 4.18524169921875 1.6493761097301134 4.1695945046164775 1.654702814275568 Q 4.16693115234375 1.6889934747869315 4.16693115234375 1.7509164151278407 Q 4.16693115234375 1.8251573597301134 4.167264071377841 1.8644418057528407 Q 4.167596990411932 1.903726251775568 4.168096368963068 1.9413461026278407 Q 4.168595747514204 1.9789659534801134 4.169095126065341 2.0134230735085223 Q 4.1695945046164775 2.0478801935369315 4.170260342684659 2.075179554332386 Q 4.171259099786932 2.10947021484375 4.171924937855113 2.129112437855113 M 4.495355779474431 1.976635520241477 L 4.496021617542613 2.09482177734375 Q 4.496021617542613 2.110801890980113 4.496021617542613 2.1221211381392044 Q 4.496354536576704 2.1271149236505678 4.496354536576704 2.1307770330255678 Q 4.580250133167613 2.1307770330255678 4.607882412997158 2.1281136807528407 Q 4.636513449928977 2.1251174094460223 4.641174316406249 2.126449085582386 Q 4.6458351828835225 2.12778076171875 4.649164373224431 2.1307770330255678 Q 4.655822753906249 2.1367695756392044 4.655822753906249 2.143927334872159 Q 4.655822753906249 2.151085094105113 4.6494972922585225 2.1562453391335223 Q 4.643171830610795 2.1614055841619315 4.631852583451704 2.16073974609375 Q 4.577253861860795 2.1564117986505678 4.533308549360795 2.1592416104403407 Q 4.489363236860795 2.162071422230113 4.48403653231534 2.1629037198153407 Q 4.478709827769886 2.1637360174005678 4.474548339843749 2.1629037198153407 Q 4.470386851917613 2.162071422230113 4.467057661576704 2.159408069957386 Q 4.459400523792613 2.1537484463778407 4.460066361860795 2.1427621182528407 Q 4.465060147372158 2.0465485174005678 4.465060147372158 1.9298603959517042 Q 4.465060147372158 1.8131722745028407 4.465226606889204 1.7830431019176134 Q 4.465393066406249 1.752913929332386 4.465393066406249 1.727945001775568 Q 4.4647272283380675 1.6743450372869315 4.463062633167613 1.652205921519886 Q 4.461398037997158 1.6300668057528407 4.46389493075284 1.625738858309659 Q 4.4663918235085225 1.621410910866477 4.4700539328835225 1.6194133966619315 Q 4.475047718394886 1.6170829634232953 4.482704856178977 1.618414639559659 Q 4.496687455610795 1.6207450727982953 4.5196588689630675 1.6207450727982953 Q 4.563937100497158 1.6207450727982953 4.5800836736505675 1.6189140181107953 Q 4.596230246803977 1.6170829634232953 4.600891113281249 1.6185810990767044 Q 4.6055519797585225 1.6200792347301134 4.60854825106534 1.6227425870028407 Q 4.615206631747158 1.6280692915482953 4.615206631747158 1.635726429332386 Q 4.615206631747158 1.643383567116477 4.6092140891335225 1.6483773526278407 Q 4.603221546519886 1.6533711381392044 4.5929010564630675 1.652871759588068 Q 4.582580566406249 1.6523723810369315 4.5709284002130675 1.6515400834517044 Q 4.559276234019886 1.650707785866477 4.545959472656249 1.6500419477982953 Q 4.517994273792613 1.6490431906960223 4.497353293678977 1.650707785866477 Q 4.497353293678977 1.679671741832386 4.497020374644886 1.7083027787642044 Q 4.496687455610795 1.742260520241477 4.496354536576704 1.7772170188210226 Q 4.495355779474431 1.8711001864346588 4.495355779474431 1.9157113370028407 Q 4.536970658735795 1.9157113370028407 4.556612881747158 1.9137138227982953 Q 4.577919699928977 1.9113833895596588 4.583412863991477 1.9157113370028407 Q 4.588906028053977 1.9200392844460226 4.588906028053977 1.9273635031960226 Q 4.588906028053977 1.9456740500710226 4.554615367542613 1.9450082120028407 Q 4.547624067826704 1.9446752929687499 4.541964444247158 1.9446752929687499 L 4.514998002485795 1.9443423739346588 L 4.495355779474431 1.9443423739346588 L 4.495355779474431 1.976635520241477 M 4.952120694247158 1.6249065607244315 Q 4.958279696377841 1.6317314009232953 4.954451127485795 1.6447152432528407 Q 4.95062255859375 1.657699085582386 4.945462313565341 1.680004660866477 Q 4.940302068536932 1.702310236150568 4.933976606889204 1.7307748135653407 Q 4.927651145241477 1.7592393909801134 4.920326926491477 1.7926977539062499 Q 4.913002707741477 1.826156116832386 4.905179110440341 1.8621113725142042 Q 4.897355513139204 1.8980666281960226 4.889198996803977 1.9355200195312499 Q 4.88104248046875 1.972973410866477 4.872719504616477 2.009261585582386 Q 4.854076038707386 2.0904938299005678 4.840426358309658 2.1427621182528407 Q 4.836098410866477 2.160406827059659 4.819119540127841 2.160406827059659 Q 4.801141912286932 2.160406827059659 4.795482288707386 2.1427621182528407 Q 4.790821422230113 2.12778076171875 4.775673606178977 2.055370871803977 Q 4.760525790127841 1.9829609818892042 4.752369273792613 1.945507590553977 Q 4.744212757457386 1.9080541992187499 4.735390403053977 1.868270374644886 Q 4.7265680486505675 1.8284865500710226 4.7172463156960225 1.7892021040482953 Q 4.69793701171875 1.7083027787642044 4.687782981178977 1.674511496803977 Q 4.677628950639204 1.6407202148437499 4.677628950639204 1.6335624556107953 Q 4.677628950639204 1.6264046963778407 4.6824562766335225 1.621743829900568 Q 4.687283602627841 1.6170829634232953 4.694774280894886 1.6167500443892044 Q 4.702264959161932 1.6164171253551134 4.709755637428977 1.621743829900568 Q 4.7172463156960225 1.6270705344460223 4.720409046519886 1.6443823242187499 Q 4.72357177734375 1.661694113991477 4.72906494140625 1.6899922318892044 Q 4.73455810546875 1.7182903497869315 4.7412164861505675 1.751082874644886 Q 4.747874866832386 1.7838753995028407 4.755365545099432 1.8196641956676134 Q 4.762856223366477 1.855452991832386 4.7705133611505675 1.8912417879971588 Q 4.778170498934658 1.9270305841619315 4.78582763671875 1.9614877041903407 Q 4.793484774502841 1.9959448242187499 4.800808993252841 2.0262404563210223 Q 4.812128240411932 2.075179554332386 4.820784135298295 2.1061410245028407 Q 4.828774192116477 2.08383544921875 4.837430087002841 2.044883922230113 Q 4.849748091264204 1.9886206054687499 4.8547418767755675 1.9643175159801134 Q 4.860734419389204 1.936019398082386 4.8693903142755675 1.8889113547585226 Q 4.878046209161932 1.8418033114346588 4.884371670809658 1.809676624644886 Q 4.890697132457386 1.7775499378551134 4.896356756036932 1.7494182794744315 Q 4.902016379616477 1.7212866210937499 4.907176624644886 1.696151234019886 Q 4.912336869673295 1.6710158469460226 4.9151666814630675 1.652871759588068 Q 4.917996493252841 1.6347276722301134 4.922823819247158 1.6264046963778407 Q 4.927651145241477 1.618081720525568 4.936806418678977 1.618081720525568 Q 4.945961692116477 1.618081720525568 4.952120694247158 1.6249065607244315 M 5.057323109019886 1.976635520241477 L 5.057988947088068 2.09482177734375 Q 5.057988947088068 2.110801890980113 5.057988947088068 2.1221211381392044 Q 5.058321866122159 2.1271149236505678 5.058321866122159 2.1307770330255678 Q 5.142217462713068 2.1307770330255678 5.169849742542613 2.1281136807528407 Q 5.198480779474432 2.1251174094460223 5.203141645951704 2.126449085582386 Q 5.2078025124289775 2.12778076171875 5.211131702769886 2.1307770330255678 Q 5.217790083451704 2.1367695756392044 5.217790083451704 2.143927334872159 Q 5.217790083451704 2.151085094105113 5.2114646218039775 2.1562453391335223 Q 5.20513916015625 2.1614055841619315 5.193819912997159 2.16073974609375 Q 5.13922119140625 2.1564117986505678 5.09527587890625 2.1592416104403407 Q 5.05133056640625 2.162071422230113 5.046003861860795 2.1629037198153407 Q 5.040677157315341 2.1637360174005678 5.036515669389204 2.1629037198153407 Q 5.032354181463068 2.162071422230113 5.029024991122159 2.159408069957386 Q 5.021367853338068 2.1537484463778407 5.02203369140625 2.1427621182528407 Q 5.027027476917613 2.0465485174005678 5.027027476917613 1.9298603959517042 Q 5.027027476917613 1.8131722745028407 5.027193936434659 1.7830431019176134 Q 5.027360395951704 1.752913929332386 5.027360395951704 1.727945001775568 Q 5.0266945578835225 1.6743450372869315 5.025029962713068 1.652205921519886 Q 5.023365367542613 1.6300668057528407 5.025862260298295 1.625738858309659 Q 5.0283591530539775 1.621410910866477 5.0320212624289775 1.6194133966619315 Q 5.037015047940341 1.6170829634232953 5.044672185724432 1.618414639559659 Q 5.05865478515625 1.6207450727982953 5.0816261985085225 1.6207450727982953 Q 5.125904430042613 1.6207450727982953 5.1420510031960225 1.6189140181107953 Q 5.158197576349432 1.6170829634232953 5.162858442826704 1.6185810990767044 Q 5.1675193093039775 1.6200792347301134 5.170515580610795 1.6227425870028407 Q 5.177173961292613 1.6280692915482953 5.177173961292613 1.635726429332386 Q 5.177173961292613 1.643383567116477 5.1711814186789775 1.6483773526278407 Q 5.165188876065341 1.6533711381392044 5.1548683860085225 1.652871759588068 Q 5.144547895951704 1.6523723810369315 5.1328957297585225 1.6515400834517044 Q 5.121243563565341 1.650707785866477 5.107926802201704 1.6500419477982953 Q 5.079961603338068 1.6490431906960223 5.059320623224432 1.650707785866477 Q 5.059320623224432 1.679671741832386 5.058987704190341 1.7083027787642044 Q 5.05865478515625 1.742260520241477 5.058321866122159 1.7772170188210226 Q 5.057323109019886 1.8711001864346588 5.057323109019886 1.9157113370028407 Q 5.09893798828125 1.9157113370028407 5.118580211292613 1.9137138227982953 Q 5.139887029474432 1.9113833895596588 5.145380193536932 1.9157113370028407 Q 5.150873357599432 1.9200392844460226 5.150873357599432 1.9273635031960226 Q 5.150873357599432 1.9456740500710226 5.116582697088068 1.9450082120028407 Q 5.109591397372159 1.9446752929687499 5.103931773792613 1.9446752929687499 L 5.07696533203125 1.9443423739346588 L 5.057323109019886 1.9443423739346588 L 5.057323109019886 1.976635520241477 M 5.294195001775568 1.618414639559659 Q 5.314503062855113 1.618414639559659 5.314503062855113 1.647378595525568 Q 5.314503062855113 1.6866630415482953 5.3140036843039775 1.7301089754971588 Q 5.313504305752841 1.7735549094460226 5.31317138671875 1.8088443270596588 Q 5.312838467684659 1.8441337446732953 5.312505548650568 1.8910753284801134 Q 5.311839710582387 1.9886206054687499 5.311173872514205 2.130444113991477 Q 5.377424760298296 2.1317757901278407 5.438348943536932 2.1257832475142044 Q 5.450334028764205 2.1244515713778407 5.4569924094460225 2.1307770330255678 Q 5.463650790127841 2.1371024946732953 5.463650790127841 2.1440937943892044 Q 5.463650790127841 2.151085094105113 5.457658247514205 2.1562453391335223 Q 5.451665704900568 2.1614055841619315 5.440013538707387 2.16073974609375 Q 5.4020607688210225 2.1577434747869315 5.358281915838068 2.159408069957386 Q 5.314503062855113 2.1610726651278407 5.305514248934659 2.1624043412642044 Q 5.296525435014205 2.1637360174005678 5.292363947088068 2.1629037198153407 Q 5.288202459161932 2.162071422230113 5.2848732688210225 2.159408069957386 Q 5.2775490500710225 2.1537484463778407 5.278214888139205 2.1427621182528407 Q 5.282209916548296 2.0648590642755678 5.282209916548296 1.9391821289062499 Q 5.282209916548296 1.8135051935369315 5.28204345703125 1.7837089399857953 Q 5.281876997514205 1.7539126864346588 5.2812111594460225 1.7289437588778407 Q 5.279879483309659 1.6793388227982953 5.2755515358664775 1.639721457741477 Q 5.274552778764205 1.629068048650568 5.280545321377841 1.6237413441051134 Q 5.2865378639914775 1.618414639559659 5.294195001775568 1.618414639559659 M 5.64459228515625 2.167065207741477 Q 5.57501220703125 2.167065207741477 5.542219682173296 2.0951546963778407 Q 5.509427157315341 2.0232441850142044 5.509427157315341 1.8827523526278407 Q 5.509427157315341 1.771890314275568 5.547047008167613 1.6966506125710226 Q 5.565690474076704 1.6600295188210226 5.5923239968039775 1.638223322088068 Q 5.61895751953125 1.6164171253551134 5.65374755859375 1.6164171253551134 Q 5.68853759765625 1.6164171253551134 5.714505282315341 1.634561212713068 Q 5.740472966974432 1.6527053000710223 5.757451837713068 1.686995960582386 Q 5.790743741122159 1.7542456054687499 5.791409579190341 1.8827523526278407 Q 5.7920754172585225 2.01791748046875 5.752790971235795 2.0931571821732953 Q 5.71417236328125 2.167065207741477 5.64459228515625 2.167065207741477 M 5.689203435724432 1.6555351118607953 Q 5.673556241122159 1.6457140003551134 5.6545798561789775 1.6457140003551134 Q 5.635603471235796 1.6457140003551134 5.620289195667613 1.6555351118607953 Q 5.604974920099432 1.665356223366477 5.5924904563210225 1.6826680131392044 Q 5.580005992542613 1.6999798029119315 5.5705178000710225 1.7234505948153407 Q 5.561029607599432 1.7469213867187499 5.554371226917613 1.7738878284801134 Q 5.541387384588068 1.8291523881392044 5.541387384588068 1.8842504882812499 Q 5.541387384588068 1.9393485884232953 5.545548872514204 1.976635520241477 Q 5.549710360440341 2.013922452059659 5.557034579190341 2.0410553533380678 Q 5.564358797940341 2.068188254616477 5.574512828480113 2.0863323419744315 Q 5.584666859019887 2.104476429332386 5.596319025213068 2.115462757457386 Q 5.6179587624289775 2.13510498046875 5.647921475497159 2.13510498046875 Q 5.736477938565341 2.13510498046875 5.7554543235085225 1.9723075727982953 Q 5.759782270951704 1.9350206409801134 5.759782270951704 1.896402033025568 Q 5.759782270951704 1.8577834250710226 5.757451837713068 1.8288194691051134 Q 5.755121404474432 1.7998555131392044 5.7499611594460225 1.773055530894886 Q 5.744800914417613 1.746255548650568 5.736644398082387 1.7229512162642044 Q 5.728487881747159 1.6996468838778407 5.716669256036932 1.6825015536221588 Q 5.704850630326704 1.665356223366477 5.689203435724432 1.6555351118607953 M 5.912092729048296 2.0125907759232953 Q 5.9147560813210225 2.0928242631392044 5.916087757457387 2.1361037375710223 Q 5.9164206764914775 2.147422984730113 5.910594593394887 2.152916148792613 Q 5.904768510298296 2.158409312855113 5.897943670099432 2.158409312855113 Q 5.891118829900568 2.158409312855113 5.885792125355113 2.1532490678267044 Q 5.880465420809659 2.1480888227982953 5.880465420809659 2.1367695756392044 L 5.880465420809659 2.061529873934659 L 5.880132501775568 1.958324973366477 L 5.880132501775568 1.8657734818892042 Q 5.880132501775568 1.775219504616477 5.878634366122159 1.7505834960937499 Q 5.87713623046875 1.7259474875710226 5.876470392400568 1.713296564275568 Q 5.875804554332387 1.7006456409801134 5.874805797230113 1.6874953391335226 Q 5.873807040127841 1.6743450372869315 5.872974742542613 1.661694113991477 Q 5.872142444957387 1.6490431906960223 5.874639337713068 1.6443823242187499 Q 5.87713623046875 1.639721457741477 5.88079833984375 1.637557484019886 Q 5.88446044921875 1.6353935102982953 5.888455477627841 1.6347276722301134 Q 5.892450506036932 1.6340618341619315 5.9054343483664775 1.6307326438210223 Q 5.946383389559659 1.6207450727982953 5.978010697798296 1.6207450727982953 Q 6.009638006036932 1.6207450727982953 6.031610662286932 1.628735129616477 Q 6.053583318536932 1.636725186434659 6.069230513139204 1.6530382191051134 Q 6.102522416548295 1.687328879616477 6.102522416548295 1.7509164151278407 Q 6.102522416548295 1.837475363991477 6.04193115234375 1.9097187943892042 Q 5.992992054332387 1.9679796253551134 5.912092729048296 2.0125907759232953 M 5.9110939719460225 1.9809634676846588 Q 6.071893865411932 1.8937386807528407 6.071893865411932 1.7539126864346588 Q 6.071893865411932 1.6770083895596588 6.018626819957387 1.655035733309659 Q 5.979009454900568 1.6387227006392044 5.922413219105113 1.658032004616477 Q 5.915754838423296 1.6603624378551134 5.909762295809659 1.6626928710937499 Q 5.9074318625710225 1.7209537020596588 5.9074318625710225 1.782543723366477 L 5.9074318625710225 1.8830852716619315 Q 5.9074318625710225 1.8894107333096588 5.907764781605113 1.8954032759232953 Q 5.908097700639204 1.9013958185369315 5.90826416015625 1.9082206587357953 Q 5.908430619673296 1.9150454989346588 5.908929998224432 1.9258653675426134 Q 5.909429376775568 1.936685236150568 5.91009521484375 1.9529982688210226 Q 5.910428133877841 1.9646504350142042 5.9110939719460225 1.9809634676846588 M 6.200567072088068 2.0125907759232953 Q 6.203230424360795 2.0928242631392044 6.204562100497159 2.1361037375710223 Q 6.20489501953125 2.147422984730113 6.199068936434659 2.152916148792613 Q 6.193242853338068 2.158409312855113 6.186418013139204 2.158409312855113 Q 6.179593172940341 2.158409312855113 6.174266468394886 2.1532490678267044 Q 6.168939763849432 2.1480888227982953 6.168939763849432 2.1367695756392044 L 6.168939763849432 2.061529873934659 L 6.168606844815341 1.958324973366477 L 6.168606844815341 1.8657734818892042 Q 6.168606844815341 1.775219504616477 6.167108709161932 1.7505834960937499 Q 6.1656105735085225 1.7259474875710226 6.164944735440341 1.713296564275568 Q 6.164278897372159 1.7006456409801134 6.163280140269886 1.6874953391335226 Q 6.162281383167613 1.6743450372869315 6.161449085582386 1.661694113991477 Q 6.160616787997159 1.6490431906960223 6.163113680752841 1.6443823242187499 Q 6.1656105735085225 1.639721457741477 6.1692726828835225 1.637557484019886 Q 6.1729347922585225 1.6353935102982953 6.176929820667613 1.6347276722301134 Q 6.180924849076704 1.6340618341619315 6.19390869140625 1.6307326438210223 Q 6.234857732599432 1.6207450727982953 6.266485040838068 1.6207450727982953 Q 6.298112349076704 1.6207450727982953 6.320085005326704 1.628735129616477 Q 6.342057661576704 1.636725186434659 6.357704856178977 1.6530382191051134 Q 6.390996759588068 1.687328879616477 6.390996759588068 1.7509164151278407 Q 6.390996759588068 1.837475363991477 6.3304054953835225 1.9097187943892042 Q 6.281466397372159 1.9679796253551134 6.200567072088068 2.0125907759232953 M 6.199568314985795 1.9809634676846588 Q 6.360368208451704 1.8937386807528407 6.360368208451704 1.7539126864346588 Q 6.360368208451704 1.6770083895596588 6.307101162997159 1.655035733309659 Q 6.267483797940341 1.6387227006392044 6.210887562144886 1.658032004616477 Q 6.204229181463068 1.6603624378551134 6.198236638849432 1.6626928710937499 Q 6.195906205610795 1.7209537020596588 6.195906205610795 1.782543723366477 L 6.195906205610795 1.8830852716619315 Q 6.195906205610795 1.8894107333096588 6.196239124644886 1.8954032759232953 Q 6.196572043678977 1.9013958185369315 6.1967385031960225 1.9082206587357953 Q 6.196904962713068 1.9150454989346588 6.197404341264204 1.9258653675426134 Q 6.197903719815341 1.936685236150568 6.1985695578835225 1.9529982688210226 Q 6.198902476917613 1.9646504350142042 6.199568314985795 1.9809634676846588 M 6.485046386718749 1.976635520241477 L 6.485712224786932 2.09482177734375 Q 6.485712224786932 2.110801890980113 6.485712224786932 2.1221211381392044 Q 6.4860451438210225 2.1271149236505678 6.4860451438210225 2.1307770330255678 Q 6.569940740411932 2.1307770330255678 6.597573020241477 2.1281136807528407 Q 6.626204057173295 2.1251174094460223 6.6308649236505675 2.126449085582386 Q 6.635525790127841 2.12778076171875 6.638854980468749 2.1307770330255678 Q 6.6455133611505675 2.1367695756392044 6.6455133611505675 2.143927334872159 Q 6.6455133611505675 2.151085094105113 6.639187899502841 2.1562453391335223 Q 6.632862437855113 2.1614055841619315 6.6215431906960225 2.16073974609375 Q 6.566944469105113 2.1564117986505678 6.522999156605113 2.1592416104403407 Q 6.479053844105113 2.162071422230113 6.473727139559658 2.1629037198153407 Q 6.468400435014204 2.1637360174005678 6.4642389470880675 2.1629037198153407 Q 6.460077459161932 2.162071422230113 6.4567482688210225 2.159408069957386 Q 6.449091131036932 2.1537484463778407 6.449756969105113 2.1427621182528407 Q 6.454750754616477 2.0465485174005678 6.454750754616477 1.9298603959517042 Q 6.454750754616477 1.8131722745028407 6.4549172141335225 1.7830431019176134 Q 6.4550836736505675 1.752913929332386 6.4550836736505675 1.727945001775568 Q 6.454417835582386 1.6743450372869315 6.452753240411932 1.652205921519886 Q 6.451088645241477 1.6300668057528407 6.453585537997158 1.625738858309659 Q 6.456082430752841 1.621410910866477 6.459744540127841 1.6194133966619315 Q 6.464738325639204 1.6170829634232953 6.472395463423295 1.618414639559659 Q 6.486378062855113 1.6207450727982953 6.509349476207386 1.6207450727982953 Q 6.553627707741477 1.6207450727982953 6.569774280894886 1.6189140181107953 Q 6.585920854048295 1.6170829634232953 6.5905817205255675 1.6185810990767044 Q 6.595242587002841 1.6200792347301134 6.598238858309658 1.6227425870028407 Q 6.604897238991477 1.6280692915482953 6.604897238991477 1.635726429332386 Q 6.604897238991477 1.643383567116477 6.598904696377841 1.6483773526278407 Q 6.592912153764204 1.6533711381392044 6.582591663707386 1.652871759588068 Q 6.5722711736505675 1.6523723810369315 6.560619007457386 1.6515400834517044 Q 6.548966841264204 1.650707785866477 6.5356500799005675 1.6500419477982953 Q 6.507684881036932 1.6490431906960223 6.487043900923295 1.650707785866477 Q 6.487043900923295 1.679671741832386 6.486710981889204 1.7083027787642044 Q 6.486378062855113 1.742260520241477 6.4860451438210225 1.7772170188210226 Q 6.485046386718749 1.8711001864346588 6.485046386718749 1.9157113370028407 Q 6.526661265980113 1.9157113370028407 6.546303488991477 1.9137138227982953 Q 6.567610307173295 1.9113833895596588 6.573103471235795 1.9157113370028407 Q 6.578596635298295 1.9200392844460226 6.578596635298295 1.9273635031960226 Q 6.578596635298295 1.9456740500710226 6.544305974786932 1.9450082120028407 Q 6.5373146750710225 1.9446752929687499 6.531655051491477 1.9446752929687499 L 6.504688609730113 1.9443423739346588 L 6.485046386718749 1.9443423739346588 L 6.485046386718749 1.976635520241477 M 6.71026611328125 1.9869560102982953 L 6.710931951349432 1.8461312588778407 Q 6.710931951349432 1.7262804066051134 6.703274813565341 1.643050648082386 Q 6.702276056463068 1.632397238991477 6.708601518110795 1.627236993963068 Q 6.7149269797585225 1.622076748934659 6.72308349609375 1.622076748934659 Q 6.731240012428977 1.622076748934659 6.737898393110795 1.627236993963068 Q 6.744556773792613 1.632397238991477 6.743890935724432 1.6498754882812499 Q 6.74322509765625 1.6673537375710226 6.7423928000710225 1.6941537198153407 Q 6.741560502485795 1.7209537020596588 6.740894664417613 1.7509164151278407 Q 6.73956298828125 1.8108418412642044 6.73956298828125 1.859448020241477 Q 6.73956298828125 1.9080541992187499 6.739729447798295 1.9258653675426134 Q 6.739895907315341 1.943676535866477 6.740228826349432 1.9603224875710226 Q 6.741893421519886 2.0488789506392044 6.750216397372159 2.072516202059659 Q 6.758539373224432 2.096153453480113 6.769525701349432 2.1088043767755678 Q 6.791498357599432 2.134106223366477 6.826121937144886 2.134106223366477 Q 6.861744273792613 2.134106223366477 6.885048606178977 2.1078056196732953 Q 6.9090187766335225 2.0805062588778407 6.913013805042613 2.031567160866477 Q 6.916675914417613 1.9716417347301134 6.916675914417613 1.9353535600142042 Q 6.916675914417613 1.8990653852982953 6.916509454900568 1.872598322088068 Q 6.9163429953835225 1.8461312588778407 6.915677157315341 1.8131722745028407 Q 6.913013805042613 1.7172915926846588 6.910350452769886 1.6410531338778407 Q 6.910017533735795 1.6303997247869315 6.916010076349432 1.625405939275568 Q 6.922002618963068 1.6204121537642044 6.929659756747159 1.6204121537642044 Q 6.93731689453125 1.6204121537642044 6.943642356178977 1.625405939275568 Q 6.949967817826704 1.6303997247869315 6.949634898792613 1.6410531338778407 Q 6.94830322265625 1.690658069957386 6.948136763139204 1.738931329900568 Q 6.947970303622159 1.7872045898437499 6.947637384588068 1.8348120117187499 Q 6.946971546519886 1.9503349165482953 6.943309437144886 2.0007721502130678 Q 6.939647327769886 2.0512093838778407 6.932156649502841 2.0768441495028407 Q 6.924665971235795 2.1024789151278407 6.910683371803977 2.1224540571732953 Q 6.879388982599432 2.167065207741477 6.826454856178977 2.167065207741477 Q 6.738897150213068 2.167065207741477 6.717257412997159 2.0701857688210223 Q 6.71026611328125 2.03989013671875 6.71026611328125 2.0026032049005678 L 6.71026611328125 1.9869560102982953 M 7.088961514559659 2.0049336381392044 Q 7.091624866832387 2.0805062588778407 7.093289462002841 2.1361037375710223 Q 7.093622381036932 2.147422984730113 7.087629838423296 2.152916148792613 Q 7.081637295809659 2.158409312855113 7.074812455610796 2.158409312855113 Q 7.067987615411932 2.158409312855113 7.0628273703835225 2.1532490678267044 Q 7.057667125355114 2.1480888227982953 7.057667125355114 2.137768332741477 L 7.057667125355114 1.8874132191051134 Q 7.057667125355114 1.7575747958096588 7.051341663707387 1.654369895241477 Q 7.050342906605114 1.639721457741477 7.059331720525568 1.6340618341619315 Q 7.062993829900568 1.6317314009232953 7.066988858309659 1.631232022372159 Q 7.07098388671875 1.6307326438210223 7.0846335671164775 1.6267376154119315 Q 7.118924227627841 1.6170829634232953 7.152715509588068 1.6170829634232953 Q 7.186506791548296 1.6170829634232953 7.208645907315341 1.6245736416903407 Q 7.230785023082387 1.632064319957386 7.246432217684659 1.647378595525568 Q 7.27972412109375 1.680004660866477 7.27972412109375 1.7435921963778407 Q 7.27972412109375 1.8254902787642044 7.215137828480114 1.9017287375710226 Q 7.204817338423296 1.914046741832386 7.193165172230114 1.9260318270596588 Q 7.2257912375710225 2.0259075372869315 7.2697365500710225 2.1297782759232953 Q 7.277726606889205 2.1477559037642044 7.261746493252841 2.156078879616477 Q 7.25775146484375 2.1580763938210223 7.252424760298296 2.1580763938210223 Q 7.2404396750710225 2.1580763938210223 7.235445889559659 2.1444267134232953 Q 7.22479248046875 2.1134652432528407 7.216136585582387 2.0850006658380678 Q 7.2074806906960225 2.0565360884232953 7.19915771484375 2.0295696466619315 Q 7.18450927734375 1.9809634676846588 7.171525435014205 1.9463398881392042 Q 7.134904341264205 1.9786330344460226 7.088961514559659 2.0049336381392044 M 7.087962757457387 1.973306329900568 Q 7.14056396484375 1.9426777787642042 7.186506791548296 1.8900765713778407 Q 7.248096812855114 1.8184989790482953 7.248096812855114 1.7465884676846588 Q 7.248096812855114 1.6720146040482953 7.195828524502841 1.650374866832386 Q 7.1671974875710225 1.6383897816051134 7.122919256036932 1.647045676491477 Q 7.101945356889205 1.651040704900568 7.088628595525568 1.657699085582386 Q 7.084300648082387 1.7579077148437499 7.084300648082387 1.8258231977982953 Q 7.084300648082387 1.8980666281960226 7.084467107599432 1.9035597922585226 Q 7.0846335671164775 1.9090529563210226 7.0848000266335225 1.9135473632812499 Q 7.084966486150568 1.918041770241477 7.085299405184659 1.9228690962357953 Q 7.08563232421875 1.9276964222301134 7.086131702769887 1.936685236150568 Q 7.0866310813210225 1.9456740500710226 7.087296919389205 1.9599895685369315 Q 7.087629838423296 1.965982111150568 7.087962757457387 1.973306329900568 M 7.413058194247159 1.621077991832386 Q 7.422379927201705 1.621077991832386 7.532909046519887 1.618414639559659 Q 7.548223322088068 1.618414639559659 7.553882945667614 1.6300668057528407 Q 7.5552146218039775 1.6333959960937499 7.5552146218039775 1.6377239435369315 Q 7.5552146218039775 1.6420518909801134 7.550220836292614 1.6465462979403407 Q 7.54522705078125 1.651040704900568 7.531577370383523 1.650707785866477 Q 7.517927689985796 1.650374866832386 7.505110307173296 1.6497090287642044 Q 7.492292924360796 1.6490431906960223 7.481306596235796 1.6487102716619315 Q 7.461664373224432 1.6480444335937499 7.447681773792614 1.6483773526278407 Q 7.445018421519887 1.7249487304687499 7.445018421519887 1.8145039506392044 Q 7.445018421519887 1.910384632457386 7.445184881036932 1.945840509588068 Q 7.4453513405539775 1.9812963867187499 7.446017178622159 2.0135895330255678 Q 7.447015935724432 2.096153453480113 7.448014692826705 2.1361037375710223 Q 7.448347611860796 2.147422984730113 7.442854447798296 2.152916148792613 Q 7.437361283735796 2.158409312855113 7.430869362571023 2.158409312855113 Q 7.42437744140625 2.158409312855113 7.418218439275568 2.1532490678267044 Q 7.412059437144887 2.1480888227982953 7.412059437144887 2.137768332741477 L 7.411726518110796 2.0941559392755678 L 7.415055708451705 1.7762182617187499 Q 7.415055708451705 1.687328879616477 7.412725275213068 1.6483773526278407 Q 7.39508056640625 1.6480444335937499 7.370777476917614 1.6497090287642044 Q 7.342146439985796 1.6517065429687499 7.329329057173296 1.652538840553977 Q 7.316511674360796 1.6533711381392044 7.311184969815341 1.6483773526278407 Q 7.305858265269887 1.643383567116477 7.305858265269887 1.6368916459517044 Q 7.305858265269887 1.6303997247869315 7.311184969815341 1.6240742631392044 Q 7.316511674360796 1.617748801491477 7.328330300071023 1.6182481800426134 Q 7.34014892578125 1.6187475585937499 7.348804820667614 1.6190804776278407 Q 7.3574607155539775 1.6194133966619315 7.36395263671875 1.6197463156960223 Q 7.370444557883523 1.6200792347301134 7.375438343394887 1.6204121537642044 Q 7.38043212890625 1.6207450727982953 7.385592373934659 1.6209115323153407 Q 7.390752618963068 1.621077991832386 7.397410999644887 1.621077991832386 L 7.413058194247159 1.621077991832386 M 7.7088567560369325 1.6197463156960223 Q 7.716846812855114 1.6197463156960223 7.7235051935369325 1.6264046963778407 Q 7.730163574218751 1.633063077059659 7.733992143110796 1.6542034357244315 Q 7.737820712002842 1.6753437943892044 7.7456443093039775 1.7146282404119315 Q 7.753467906605114 1.7539126864346588 7.763122558593751 1.7985238370028407 Q 7.772777210582387 1.8431349875710226 7.783430619673296 1.890575949928977 Q 7.794084028764205 1.9380169122869315 7.804737437855114 1.9826280628551134 Q 7.830372203480114 2.087164639559659 7.844687721946023 2.1354378995028407 Q 7.8480169122869325 2.1477559037642044 7.842856667258523 2.1550801225142044 Q 7.837696422230114 2.1624043412642044 7.831370960582387 2.1624043412642044 Q 7.82504549893466 2.1624043412642044 7.819885253906251 2.1587422318892044 Q 7.814725008877842 2.1550801225142044 7.810729980468751 2.1371024946732953 Q 7.80673495205966 2.119124866832386 7.797746138139205 2.078841663707386 Q 7.788757324218751 2.038558460582386 7.7784368341619325 1.9922827148437499 Q 7.778103915127842 1.9902852006392042 7.777770996093751 1.9886206054687499 Q 7.755132501775568 1.987621848366477 7.713850541548296 1.987621848366477 Q 7.665244362571023 1.987621848366477 7.639609596946023 1.9889535245028407 Q 7.6392766779119325 1.990951038707386 7.638943758877842 1.9929485529119315 Q 7.618635697798296 2.090826748934659 7.60898104580966 2.1444267134232953 Q 7.605651855468751 2.1614055841619315 7.591336337002842 2.1614055841619315 Q 7.576354980468751 2.1614055841619315 7.573025790127842 2.1467571466619315 Q 7.572027033025568 2.14242919921875 7.575023304332387 2.1331074662642044 Q 7.578019575639205 2.123785733309659 7.583845658735796 2.1009807794744315 Q 7.589671741832387 2.0781758256392044 7.596496582031251 2.048712491122159 Q 7.603321422230114 2.019249156605113 7.610978560014205 1.984292658025568 Q 7.618635697798296 1.9493361594460226 7.6266257546164775 1.9123821466619315 Q 7.63461581143466 1.8754281338778407 7.642605868252842 1.8379747425426134 Q 7.650595925071023 1.800521351207386 7.657920143821023 1.7655648526278407 Q 7.665244362571023 1.7306083540482953 7.671736283735796 1.6999798029119315 Q 7.678228204900568 1.669351251775568 7.68222323330966 1.651373623934659 Q 7.688548694957387 1.6197463156960223 7.7088567560369325 1.6197463156960223 M 7.645935058593751 1.957992054332386 Q 7.67123690518466 1.9593237304687499 7.714183460582387 1.9593237304687499 Q 7.749805797230114 1.9593237304687499 7.7711126154119325 1.958324973366477 Q 7.764121315696023 1.9280293412642042 7.757130015980114 1.896069113991477 Q 7.746143687855114 1.8464641779119315 7.736156116832387 1.7998555131392044 Q 7.719510165127842 1.723617054332386 7.707525079900568 1.6660220614346588 Q 7.6998679421164775 1.7043077503551134 7.685552423650568 1.7702257191051134 Q 7.6669089577414775 1.8581163441051134 7.657254305752842 1.9040591708096588 Q 7.651594682173296 1.9316914506392042 7.645935058593751 1.957992054332386 M 7.925753506747159 2.01059326171875 L 7.925420587713068 1.8511250443892044 Q 7.925420587713068 1.7392642489346588 7.917430530894887 1.6387227006392044 Q 7.916431773792614 1.6237413441051134 7.9270851828835225 1.6194133966619315 Q 7.933077725497159 1.6167500443892044 7.941067782315341 1.618081720525568 Q 7.955050381747159 1.6204121537642044 7.975025523792614 1.6204121537642044 Q 7.995000665838068 1.6204121537642044 8.004155939275568 1.620245694247159 Q 8.013311212713068 1.6200792347301134 8.022632945667613 1.6197463156960223 Q 8.045937278053977 1.6187475585937499 8.054426713423295 1.617748801491477 Q 8.062916148792613 1.6167500443892044 8.067410555752842 1.618081720525568 Q 8.071904962713068 1.6194133966619315 8.075234153053977 1.622076748934659 Q 8.081892533735795 1.6280692915482953 8.081892533735795 1.6355599698153407 Q 8.081892533735795 1.643050648082386 8.07589999112216 1.6480444335937499 Q 8.069907448508523 1.6530382191051134 8.05942049893466 1.652538840553977 Q 8.048933549360795 1.6520394620028407 8.036282626065342 1.6512071644176134 Q 8.023631702769887 1.650374866832386 8.008983265269887 1.6500419477982953 Q 7.9783547141335225 1.6490431906960223 7.957047895951705 1.650374866832386 L 7.957047895951705 1.7079698597301134 Q 7.957047895951705 1.741927601207386 7.956714976917614 1.7772170188210226 Q 7.9563820578835225 1.8714331054687499 7.9563820578835225 1.9157113370028407 Q 8.001991965553977 1.9157113370028407 8.027959650213068 1.9130479847301134 Q 8.055591930042613 1.9100517134232953 8.055591930042613 1.9273635031960226 Q 8.055591930042613 1.944009454900568 8.01730624112216 1.9443423739346588 Q 8.007651589133523 1.9446752929687499 8.001991965553977 1.9446752929687499 L 7.975358442826705 1.9443423739346588 L 7.9563820578835225 1.9443423739346588 L 7.959378329190341 2.1391000088778407 Q 7.959378329190341 2.1477559037642044 7.954883922230114 2.1535819868607953 Q 7.950389515269887 2.159408069957386 7.945062810724432 2.159408069957386 Q 7.9397361061789775 2.159408069957386 7.936406915838068 2.158575772372159 Q 7.933077725497159 2.1577434747869315 7.930081454190341 2.1554130415482953 Q 7.923090154474432 2.149420498934659 7.923755992542614 2.1391000088778407 Q 7.925753506747159 2.100814319957386 7.925753506747159 2.01059326171875" fill="#64c6c4" fill-rule="nonzero"></path></g><g clip-path="url(#SvgjsClipPath1002)"><g clip-path="url(#a6c663180-9ef2-4674-9257-4c1173ddb3bd19e3693e-76ee-4946-9b0c-d23926154e42)"><path d=" M 6.07763671875 -0.25 C 3.170781694136055 -0.25 0.8144091356031016 -2.6063725585329536 0.8144091356031016 -5.513227583146899 C 0.8144091356031016 -8.42040302828825 3.170781694136055 -10.776775586821202 6.07763671875 -10.776775586821202 C 8.984491743363947 -10.776775586821202 11.340864301896898 -8.420403028288248 11.340864301896898 -5.513227583146898 C 11.340864301896898 -2.6063725585329536 8.984491743363947 -0.25 6.07763671875 -0.25" fill="#64c6c4" transform="matrix(1,0,0,1,0,0)" fill-rule="nonzero"></path></g><g clip-path="url(#a6c663180-9ef2-4674-9257-4c1173ddb3bd19e3693e-76ee-4946-9b0c-d23926154e42)"><path d=" M 9.508058885142956 -5.833007269496626 C 9.552597338452188 -5.926249642971346 9.601942099672486 -6.016608231699426 9.622449013426374 -6.08197401928995 C 9.709603396880409 -6.3594581960222785 9.38469698209221 -7.129428723375376 9.120029626456065 -7.256956093282382 C 9.070044024180957 -7.280987632837721 8.986414266528373 -7.296688238680544 8.90214366782098 -7.315272629270007 C 9.029671037727985 -7.039070134647298 9.226088821026964 -6.57862583676698 9.508058885142956 -5.833007269496626" fill="#212245" transform="matrix(1,0,0,1,0,0)" fill-rule="nonzero"></path></g><g clip-path="url(#a6c663180-9ef2-4674-9257-4c1173ddb3bd19e3693e-76ee-4946-9b0c-d23926154e42)"><path d=" M 5.907172998170788 -3.19947095475875 C 5.882821038088043 -3.410948502845743 5.87769430964957 -3.6249894151519726 5.861032442224535 -3.9111249461242235 C 6.0654607387086275 -4.002765216961921 6.1423616652857165 -4.039293157086037 6.353518792845305 -4.117796186300148 C 6.04303130179031 -5.307197184025784 5.61270653348602 -5.998985102692176 5.362778522110482 -6.339912543850602 C 4.701750974074924 -6.055058694987969 4.18138803756996 -5.842940305846167 3.517797125315167 -5.564174447004222 C 2.9061143384999086 -5.307197184025783 2.718347909440851 -4.8675802204267615 2.96346961290532 -4.26422836732402 C 3.0362050726261502 -4.085113292504886 3.107338429709957 -3.9056777971583454 3.1826372536500225 -3.7278444044488293 C 3.3216997625435907 -3.3987725228043706 3.7898341530816175 -3.170633107292341 4.139092527952561 -3.2052385242520316 C 4.279757139483152 -3.219016606930426 4.468805250651828 -3.147883249846619 4.573262342585707 -3.0495141479334267 C 4.801081337570331 -2.833230291935366 4.976671786588017 -2.562474946278533 5.197441529969741 -2.337539736040549 C 5.393859313268722 -2.1369564858853103 5.8562261343134665 -2.186942088160418 6.102949940414958 -2.422771596330156 C 6.339099869112101 -2.648988488677759 6.128263162079917 -2.8140050602910938 6.007464623248407 -2.9902363503635874 C 5.96388743152139 -3.054000035317091 5.915503931883306 -3.12673549503792 5.907172998170788 -3.19947095475875" fill="#212245" transform="matrix(1,0,0,1,0,0)" fill-rule="nonzero"></path></g><g clip-path="url(#a6c663180-9ef2-4674-9257-4c1173ddb3bd19e3693e-76ee-4946-9b0c-d23926154e42)"><path d=" M 9.78458180029307 -4.316136492763555 C 9.655772748276446 -4.708331218306706 9.465442954998153 -5.080019030095968 9.334070538762294 -5.471893335111714 C 9.329815118565685 -5.485377418301533 9.327548335516823 -5.499409884794498 9.327341707686799 -5.5135480036743045 C 8.920728058410443 -6.602977796849725 8.67688803705559 -7.1422455444715585 8.557050759806295 -7.384483463189387 C 8.55322808722997 -7.389441144042452 8.54979977505128 -7.394690747066068 8.546797302929349 -7.400184069032209 L 8.52981501497691 -7.438314111793348 C 8.486237823249894 -7.523866392610359 8.465410488968597 -7.556549286405621 8.464769647913787 -7.5578309685152405 L 8.473741422681115 -7.563598538008522 C 8.316094523198084 -7.9259941545030514 8.18151790168818 -8.299284068929335 8.01201544269118 -8.655912115930583 C 7.97036077412859 -8.744027760966832 7.785157709288769 -8.83438634969491 7.698003325834736 -8.810034389612165 C 7.610528521853298 -8.785362009002014 7.5406768468791086 -8.626113006881962 7.503508065700182 -8.512684140180756 C 7.454483725007288 -8.364329435992456 7.477233582453009 -8.188738986974771 7.413790318026912 -8.049996898608606 C 7.116760489122909 -7.401145330614422 6.648305678057477 -6.901609728390751 5.994647802152224 -6.610027048452624 C 5.890190710218346 -6.563566071978967 5.896278700239032 -6.565809015670798 5.791501187777749 -6.520309300779354 C 6.054566440776872 -6.154709479010778 6.4957855070129185 -5.450104739248206 6.803068792793867 -4.278006450002414 C 7.521772035762241 -4.5221668918846705 8.13281398152269 -4.579522166290083 8.942837074801355 -4.2645487878514245 C 9.077093275783856 -4.212320241884485 9.18763835773842 -4.103056842039539 9.31836993291947 -4.038331895503822 C 9.445576882299072 -3.975529472132533 9.628216582919656 -3.823970562670188 9.71825475112033 -3.886132144986668 C 9.807972498793601 -3.9479733067757445 9.824954786746043 -4.193415430767619 9.78458180029307 -4.316136492763555" fill="#212245" transform="matrix(1,0,0,1,0,0)" fill-rule="nonzero"></path></g><g clip-path="url(#a6c663180-9ef2-4674-9257-4c1173ddb3bd19e3693e-76ee-4946-9b0c-d23926154e42)"><path d=" M 2.995832086173179 -3.488810691005045 C 2.995832086173179 -3.488810691005045 2.5664685794511013 -4.33279836018859 2.5975493706093413 -4.624701460654123 C 2.5975493706093413 -4.624701460654123 2.2316291283133616 -4.503902921822613 2.3892760277963934 -3.9393219525358223 C 2.5469229272794243 -3.3747409832490307 2.939758493877385 -3.487529008895426 2.995832086173179 -3.488810691005045" fill="#212245" transform="matrix(1,0,0,1,0,0)" fill-rule="nonzero"></path></g></g></g><defs><clipPath id="SvgjsClipPath1002"><path d=" M 0.8144091356031016 -10.7767755868212 h 10.526455166293797 v 10.5267755868212 h -10.526455166293797 Z"></path></clipPath><clipPath id="a6c663180-9ef2-4674-9257-4c1173ddb3bd19e3693e-76ee-4946-9b0c-d23926154e42"><path d=" M 0.8140887150756967 -0.25 L 11.340864301896898 -0.25 L 11.340864301896898 -10.776775586821204 L 0.8140887150756967 -10.776775586821204 Z"></path></clipPath></defs></svg>